<?xml version="1.0" encoding="UTF-8"?>
<svg version="1.1" xmlns="http://www.w3.org/2000/svg" width="733" height="733">
<path d="M0 0 C241.89 0 483.78 0 733 0 C733 241.89 733 483.78 733 733 C491.11 733 249.22 733 0 733 C0 491.11 0 249.22 0 0 Z " fill="#FBEDD8" transform="translate(0,0)"/>
<path d="M0 0 C241.89 0 483.78 0 733 0 C733 241.89 733 483.78 733 733 C491.11 733 249.22 733 0 733 C0 491.11 0 249.22 0 0 Z M164.9375 44.125 C164.26686523 44.42575439 163.59623047 44.72650879 162.90527344 45.03637695 C142.59143708 54.54729771 127.99193799 72.3636744 120 93 C116.48021127 103.02426318 114.845822 112.26746067 114.86577892 122.83928585 C114.86342669 123.69774055 114.86107446 124.55619525 114.85865095 125.44066373 C114.85200197 128.31290796 114.85241793 131.18510653 114.85282898 134.05735779 C114.84952781 136.13929613 114.84580171 138.22123384 114.8416875 140.30317074 C114.83168836 146.02147282 114.82795408 151.7397644 114.82529819 157.45807397 C114.821389 163.62669149 114.81181116 169.79530074 114.80308533 175.96391296 C114.78427247 190.15494802 114.77406795 204.34598113 114.76562465 218.53702514 C114.76141371 225.55452037 114.75619233 232.57201475 114.75094012 239.58950927 C114.73305264 263.62595982 114.71805801 287.66241063 114.71061993 311.69886684 C114.71014517 313.20700197 114.70966929 314.71513709 114.70919226 316.22327221 C114.70895589 316.97114609 114.70871951 317.71901997 114.70847597 318.4895567 C114.70727482 322.27843819 114.70605935 326.06731968 114.70483398 329.85620117 C114.70459383 330.60810558 114.70435368 331.36000999 114.70410626 332.13469938 C114.69621618 356.50434763 114.67278895 380.87394717 114.64027804 405.24357415 C114.60594342 431.02744551 114.58626545 456.81128837 114.58297569 482.59518296 C114.58255817 485.42828851 114.58207861 488.26139405 114.58155251 491.09449959 C114.58142931 491.79205554 114.58130612 492.48961149 114.5811792 493.20830549 C114.57885176 504.41088299 114.56321746 515.61340369 114.54271066 526.81596097 C114.52240692 538.08682138 114.51732901 549.35761499 114.52648129 560.62849652 C114.53102028 566.72880547 114.52916274 572.82893081 114.50971985 578.92921448 C114.49204738 584.52248421 114.4931192 590.11543691 114.50861714 595.7087102 C114.51098698 597.72356892 114.50670239 599.73844984 114.49478849 601.75327473 C114.34427866 628.90606238 121.55123376 651.24088111 141 671 C155.92158201 685.95241173 176.51593703 694.16367009 197.46930015 694.2814731 C198.84068895 694.27922237 200.21207744 694.27677594 201.58346558 694.27415466 C203.05849799 694.27861263 204.53352802 694.2839285 206.00855458 694.29002339 C210.0447224 694.3041475 214.08081302 694.30586774 218.11700201 694.30542648 C222.47718223 694.30707969 226.8373311 694.3201558 231.19749451 694.33161926 C240.72479253 694.35443179 250.25206822 694.3623862 259.77938986 694.36744571 C265.73539783 694.37070784 271.69139938 694.37723353 277.64740372 694.3844471 C294.15763833 694.40401006 310.66786699 694.42041541 327.17811394 694.42332363 C328.76177894 694.42360499 328.76177894 694.42360499 330.37743718 694.42389202 C332.51751113 694.42425826 334.65758508 694.42462196 336.79765902 694.42498314 C337.85991006 694.42516595 338.9221611 694.42534876 340.01660156 694.42553711 C341.08015885 694.42571766 342.14371614 694.42589821 343.23950244 694.42608423 C360.45621053 694.42962259 377.67279327 694.45662522 394.88945793 694.494035 C412.59148554 694.53218953 430.29345109 694.55148164 447.99552071 694.55178314 C457.92403649 694.55236619 467.85240284 694.56075918 477.78087997 694.58978081 C486.23866177 694.61439072 494.69623966 694.62151327 503.15404765 694.60653328 C507.46233017 694.59940285 511.77021083 694.60005275 516.07844734 694.62294388 C547.36891989 694.77906564 571.72883361 690.86602159 595.0625 668.375 C613.18820356 650.29777614 619.05960938 626.27689414 619.13976125 601.47354675 C619.14320775 598.6613833 619.1418633 595.84924376 619.14044189 593.03707886 C619.14302797 590.98982504 619.1460418 588.94257173 619.1494453 586.8953191 C619.1574899 581.28221771 619.15930345 575.66912912 619.16004276 570.05602264 C619.16189772 563.99720926 619.1694472 557.93840246 619.17617798 551.8795929 C619.19045002 537.94771867 619.19628514 524.01584758 619.20086992 510.08396789 C619.20320912 503.19389437 619.20681209 496.30382168 619.2105653 489.41374881 C619.22339695 465.81097388 619.23411705 442.20819941 619.2375679 418.60542107 C619.23778953 417.12509118 619.23801132 415.64476129 619.23823325 414.1644314 C619.23845389 412.68061241 619.23867437 411.19679342 619.2388947 409.71297443 C619.23933724 406.73638399 619.23978436 403.75979356 619.24023438 400.78320312 C619.24034377 400.04518731 619.24045316 399.3071715 619.24056586 398.54679158 C619.24419598 374.62004528 619.26011631 350.6933293 619.28342474 326.76659461 C619.30804469 301.44709183 619.32174171 276.12760637 619.32293582 250.80809128 C619.32310726 248.02643021 619.32332269 245.24476913 619.32357025 242.46310806 C619.3236539 241.43578504 619.3236539 241.43578504 619.32373925 240.38770801 C619.32488771 229.38775831 619.33589203 218.38783984 619.35045731 207.38790067 C619.36485428 196.32342758 619.36778961 185.25898594 619.36001733 174.19450383 C619.3561167 168.20572497 619.35701191 162.21705075 619.37107468 156.22828484 C619.38384826 150.7381976 619.38258571 145.24829326 619.37048396 139.75820614 C619.36853298 137.77976604 619.37157749 135.80131282 619.38032833 133.8228911 C619.50027839 104.85329802 611.95055029 81.89114929 591.875 60.4375 C574.59552477 43.66188597 552.22163307 37.49691917 528.69259644 37.61904907 C527.21223359 37.61558246 525.73187334 37.61081122 524.25151837 37.60486734 C520.2286712 37.59246563 516.20604042 37.59847763 512.18319297 37.60782599 C507.82732489 37.61466096 503.47149201 37.60411347 499.1156311 37.59588623 C490.60084741 37.58259449 482.08614336 37.58540602 473.57135664 37.59412415 C466.64819238 37.60091743 459.72505034 37.60181034 452.8018837 37.5985527 C451.32019333 37.59786316 451.32019333 37.59786316 449.80856983 37.59715968 C447.80150134 37.59620044 445.79443285 37.5952278 443.78736438 37.5942419 C424.99825655 37.5857016 406.20919273 37.59550123 387.42009212 37.611643 C371.31698601 37.62504911 355.21394479 37.62271303 339.11083984 37.60888672 C320.38284683 37.59281404 301.6548923 37.58652107 282.92689335 37.59572351 C280.9280905 37.5966791 278.92928764 37.59762221 276.93048477 37.5985527 C275.94718737 37.59901553 274.96388997 37.59947836 273.95079567 37.59995521 C267.0392384 37.60253972 260.12770566 37.59818583 253.21615219 37.59111404 C244.78874859 37.58268026 236.36142876 37.58501877 227.93403469 37.60095628 C223.63870788 37.60881311 219.3435205 37.61197493 215.04819489 37.60200882 C211.10908241 37.59300772 207.17023739 37.5980829 203.23114885 37.61394148 C201.81347756 37.61726648 200.39578322 37.61564723 198.97812699 37.60831411 C187.06278754 37.55145291 175.85723531 39.19374022 164.9375 44.125 Z " fill="#FBEDD8" transform="translate(0,0)"/>
<path d="M0 0 C1.47248297 -0.00374211 2.94496396 -0.00834586 4.41744184 -0.01373065 C8.44188376 -0.02590724 12.46624222 -0.0257065 16.49069834 -0.02334189 C20.83993197 -0.02293236 25.18913933 -0.03398603 29.5383606 -0.04345703 C38.05214412 -0.06003975 46.56589994 -0.06556538 55.07969826 -0.06668179 C62.00532021 -0.06763376 68.93093306 -0.0717515 75.85655212 -0.07808304 C95.5171285 -0.09568966 115.17768307 -0.10492306 134.83826739 -0.10342209 C135.89722875 -0.10334218 136.95619011 -0.10326227 138.04724121 -0.10317993 C139.63763644 -0.10305729 139.63763644 -0.10305729 141.26016086 -0.10293217 C158.42896349 -0.10211991 175.59767825 -0.12124397 192.76645547 -0.14945666 C210.41991894 -0.17823546 228.07333964 -0.19199415 245.72682714 -0.19026911 C255.62788448 -0.18960683 265.52884975 -0.1950276 275.42988586 -0.21662521 C283.86276709 -0.23490308 292.29551455 -0.23913056 300.72840708 -0.22560637 C305.02436545 -0.21910928 309.32006768 -0.21884023 313.61600113 -0.23631287 C354.6741958 -0.39294025 354.6741958 -0.39294025 369.76501465 8.01742554 C370.41421875 8.36176636 371.06342285 8.70610718 371.7322998 9.06088257 C393.47751248 20.8881699 408.75590526 40.09898367 415.76501465 63.76742554 C417.85606625 71.49400185 418.47732362 79.01763514 418.4561491 86.97453499 C418.45790214 87.81869311 418.45965518 88.66285124 418.46146134 89.53258991 C418.4661066 92.35617515 418.46365963 95.17970855 418.46122742 98.0032959 C418.46309613 100.05024885 418.46539708 102.09720145 418.46809274 104.14415348 C418.47420971 109.76563633 418.47407726 115.38710432 418.47289836 121.00858974 C418.47269433 127.07285224 418.47821341 133.13710997 418.48295593 139.20137024 C418.49126269 151.08163086 418.49402376 162.96188667 418.49456831 174.84214945 C418.4950281 184.50002087 418.49708773 194.15789067 418.50026894 203.81576157 C418.5011665 206.59721688 418.50205632 209.3786722 418.50294381 212.16012752 C418.50327539 213.19739404 418.50327539 213.19739404 418.50361366 214.25561544 C418.50976705 233.70419882 418.51371431 253.15278164 418.51327038 272.60136604 C418.5132548 273.33446641 418.51323922 274.06756677 418.51322317 274.82288229 C418.51314006 278.5384092 418.51304102 282.2539361 418.51293846 285.96946301 C418.51290854 287.0763063 418.51290854 287.0763063 418.51287802 288.20551007 C418.51283758 289.69771514 418.51279579 291.18992021 418.51275263 292.68212528 C418.51214007 315.89122903 418.51964332 339.10031816 418.5333252 362.30941772 C418.5486965 388.3950036 418.55729077 414.48057988 418.55636197 440.56617057 C418.55628734 443.34951202 418.55623864 446.13285347 418.55620766 448.91619492 C418.55619018 449.94415971 418.55619018 449.94415971 418.55617234 450.99289147 C418.55614161 462.00635532 418.562519 473.01980645 418.57113992 484.03326652 C418.57963016 495.10914783 418.58042455 506.1850143 418.5740306 517.26089807 C418.5707668 523.25749387 418.57070372 529.25404372 418.57938385 535.25063515 C418.58725592 540.74559908 418.58581012 546.24048068 418.57709972 551.73544262 C418.57556629 553.7179432 418.57737494 555.70044994 418.58295979 557.68294324 C418.66073952 587.26418106 412.66509747 611.58196214 391.70251465 633.32992554 C385.86977435 639.17830815 379.6349979 643.36828335 372.32751465 647.26742554 C370.98946777 647.98865601 370.98946777 647.98865601 369.62438965 648.72445679 C356.9926722 654.98358624 343.82936524 656.87196676 329.87535095 656.77536011 C328.39142294 656.77998357 326.90749954 656.78634608 325.42358547 656.79426908 C321.39540124 656.81078727 317.36760173 656.80279713 313.3394171 656.79032421 C308.97601914 656.78120339 304.61268334 656.79527794 300.2492981 656.8062439 C291.72126035 656.82395883 283.19336404 656.82022075 274.66532093 656.80859333 C267.73027427 656.79953208 260.79526703 656.79834661 253.86021614 656.8026886 C252.87036014 656.80330153 251.88050413 656.80391446 250.8606525 656.80454597 C248.84932 656.80582496 246.83798751 656.80712182 244.82665504 656.80843633 C226.00074819 656.8198214 207.17491947 656.80676074 188.34902544 656.78523487 C172.21982716 656.76736301 156.09074406 656.77047276 139.96154785 656.78890991 C121.19799518 656.81034855 102.43451082 656.81872586 83.67094761 656.80646086 C81.66763088 656.80518676 79.66431414 656.80392927 77.66099739 656.8026886 C76.67551229 656.8020715 75.69002719 656.80145439 74.6746789 656.80081859 C67.75302169 656.79737487 60.83140807 656.80317282 53.90975761 656.81260681 C45.46740627 656.82386138 37.02520357 656.82071425 28.58286911 656.79948384 C24.28117548 656.78902019 19.97972907 656.78477094 15.67803764 656.79808044 C11.73076713 656.81010807 7.78397011 656.80327369 3.83674181 656.78217024 C2.41839391 656.77774765 1.00000497 656.77987101 -0.41831595 656.78967339 C-23.96302717 656.9397562 -44.88705506 647.57725929 -61.92248535 631.57992554 C-80.89879159 611.60486634 -86.15331939 588.26032234 -86.04670715 561.45489502 C-86.04945151 559.36421352 -86.0535068 557.2735334 -86.05875081 555.18285668 C-86.06929124 549.46840384 -86.06123882 543.75410848 -86.05000031 538.0396626 C-86.04113086 531.86510892 -86.0496097 525.69057524 -86.05586243 519.51602173 C-86.06478929 508.13016756 -86.0601997 496.74437785 -86.04869861 485.35853144 C-86.0381462 474.83978706 -86.03362519 464.32106058 -86.03499413 453.80231094 C-86.03507816 453.10352332 -86.03516219 452.40473571 -86.03524876 451.6847727 C-86.03560103 448.84791066 -86.03598505 446.01104862 -86.03641434 443.17418658 C-86.04037563 416.58564197 -86.02767886 389.99712899 -86.00688778 363.40859343 C-85.98851554 339.80244746 -85.9827069 316.19633179 -85.98815918 292.59017944 C-85.98850561 291.07406147 -85.98885171 289.55794349 -85.98919747 288.04182552 C-85.98936847 287.29227363 -85.98953946 286.54272174 -85.98971564 285.77045616 C-85.99056922 281.9970556 -85.99139301 278.22365502 -85.99218464 274.45025444 C-85.99234172 273.70576708 -85.9924988 272.96127973 -85.99266064 272.19423215 C-85.99665305 252.44874591 -85.99117202 232.70326257 -85.98267335 212.9577781 C-85.98176634 210.83251336 -85.98086069 208.70724863 -85.97995812 206.5819839 C-85.97935701 205.17223752 -85.97874839 203.76249115 -85.97813221 202.35274478 C-85.97391575 192.53673927 -85.97333052 182.7207395 -85.9752377 172.90473339 C-85.97768339 160.25459029 -85.97337264 147.60448022 -85.9580277 134.95434295 C-85.9507904 128.85669376 -85.94670107 122.75908694 -85.95127106 116.66143417 C-85.95535475 111.07675497 -85.9501612 105.49216315 -85.93764498 99.90749718 C-85.93472318 97.8902209 -85.93514101 95.87293635 -85.93928806 93.85566221 C-85.96353355 80.88107405 -85.7857043 68.4369473 -80.92248535 56.20492554 C-80.66008057 55.52937622 -80.39767578 54.8538269 -80.12731934 54.1578064 C-71.7576357 33.13993477 -56.51189456 15.85992324 -35.79748535 6.44711304 C-23.77191463 1.31873687 -12.99922248 -0.03150624 0 0 Z M-49.6685791 46.64242554 C-60.67969296 61.41862995 -63.13279467 77.9444036 -63.0332489 95.84512329 C-63.03456334 97.60428507 -63.03719805 99.36344627 -63.04103088 101.12260437 C-63.04772838 105.93923625 -63.0357627 110.75566632 -63.02070354 115.5722726 C-63.0075641 120.85267362 -63.01198997 126.13306595 -63.0141573 131.41347885 C-63.01574961 141.65460358 -63.00192362 151.89564913 -62.98265331 162.13675354 C-62.96102339 173.98744753 -62.95866742 185.83809419 -62.95629883 197.68881226 C-62.94055834 228.9650292 -62.89867487 260.24122856 -62.85998535 291.51742554 C-62.79811035 361.39492554 -62.73623535 431.27242554 -62.67248535 503.26742554 C88.13751465 503.26742554 238.94751465 503.26742554 394.32751465 503.26742554 C394.38938965 433.05992554 394.45126465 362.85242554 394.51501465 290.51742554 C394.54232666 268.33427124 394.56963867 246.15111694 394.59777832 223.29574585 C394.60781049 203.44256662 394.60781049 203.44256662 394.61384583 183.58938599 C394.6166452 174.73405574 394.62765724 165.87878218 394.64424133 157.02346802 C394.66334 146.8103613 394.67202183 136.597309 394.6678495 126.38418429 C394.66604255 121.15995928 394.66890398 115.93585592 394.68516004 110.71165323 C394.69978105 105.98413963 394.70047042 101.25683346 394.69021797 96.52931023 C394.68894946 94.82364603 394.69272275 93.1179687 394.70216238 91.41233015 C394.80014457 72.59640138 390.85589863 56.25304865 377.58508301 42.3296814 C363.82689712 28.57149551 347.81689063 24.09091511 328.74488854 23.99061453 C326.78261555 23.99526034 326.78261555 23.99526034 324.78070068 24 C323.34631416 23.99625537 321.91192968 23.99165064 320.47754836 23.98626935 C316.56777888 23.97412451 312.65809552 23.97428967 308.74831152 23.97665811 C304.51912484 23.97706844 300.28996499 23.96600666 296.06079102 23.95654297 C287.78725046 23.93997935 279.51373842 23.93443555 271.24018267 23.93331821 C264.51100625 23.93236563 257.78183917 23.92824488 251.05266571 23.92191696 C231.94714947 23.90431802 212.84165563 23.8950761 193.73613122 23.89657791 C192.70764517 23.89665782 191.67915913 23.89673773 190.61950684 23.89682007 C189.58975588 23.89690183 188.56000493 23.89698359 187.4990494 23.89706783 C170.81401122 23.89788058 154.12906335 23.87874215 137.4440513 23.85054334 C120.28547942 23.82177442 103.12695153 23.80800521 85.96835494 23.80973089 C76.34572898 23.81039335 66.72319772 23.80496392 57.10059357 23.78337479 C48.90778402 23.76511028 40.71511213 23.76085884 32.52229097 23.77439363 C28.34807977 23.78089649 24.17413225 23.78113833 19.99994659 23.76368713 C16.16781886 23.74783172 12.33616116 23.75094514 8.50404403 23.7682554 C6.48438646 23.7727233 4.46471358 23.75776666 2.44511437 23.74177611 C-17.96696276 23.89358761 -36.29778984 30.73354125 -49.6685791 46.64242554 Z " fill="#211F1C" transform="translate(200.6724853515625,37.732574462890625)"/>
<path d="M0 0 C3.09125011 2.82992794 5.60672222 5.95309016 8.1875 9.25 C14.35054207 16.95909729 21.93591109 22.9057604 31.8125 24.75 C34.06023858 24.92730948 36.31082005 25.07043257 38.5625 25.1875 C52.49033483 25.96709894 67.12624447 31.34019286 76.8125 41.75 C84.38970854 50.7268203 87.05379592 60.26630054 89.56079102 71.52612305 C92.46678853 84.44632157 96.82446638 93.42553274 105.05371094 103.83691406 C109.22914838 109.15656677 112.72358737 114.72662037 115.8125 120.75 C116.1734375 121.44867188 116.534375 122.14734375 116.90625 122.8671875 C121.39943412 133.55930157 119.6379049 147.8519798 116.140625 158.50390625 C111.54875276 169.72698222 104.32511602 178.96082165 96.1875 187.8125 C88.05831179 196.85259895 85.44815076 205.08054115 82.8125 216.75 C78.9810201 233.4324815 73.04751757 246.44748829 58.49609375 256.1484375 C44.31021932 264.61453432 28.61766892 267.47565877 12.36328125 263.91015625 C3.49008973 261.57362554 -5.04957451 257.957179 -13.50219727 254.4296875 C-29.090951 247.93686383 -44.28990677 250.01997638 -59.89453125 255.33984375 C-74.22716812 260.21312658 -89.52511455 258.16248404 -103.29296875 252.46484375 C-117.15911826 245.443761 -126.1614669 234.34292483 -131.36328125 219.84375 C-134.22710038 209.09424882 -134.53178627 198.6569214 -134.578125 187.57617188 C-134.77691772 177.12298822 -136.65080873 167.74952807 -142.5625 158.9375 C-143.16964844 158.02742187 -143.77679688 157.11734375 -144.40234375 156.1796875 C-145.88877807 154.15657558 -147.40040086 152.37638357 -149.125 150.5625 C-152.29587149 147.04120875 -154.31517486 143.01348498 -156.4375 138.8125 C-156.779021 138.14387939 -157.12054199 137.47525879 -157.47241211 136.78637695 C-163.91912155 123.63136642 -164.04679734 108.93289259 -159.5078125 95.09375 C-155.40807803 84.71099052 -149.99820756 76.67013954 -142.1875 68.75 C-141.58550781 68.07582031 -140.98351562 67.40164063 -140.36328125 66.70703125 C-135.21171924 61.10847904 -129.14693188 57.24085565 -122.8125 53.12890625 C-118.38955732 50.25148047 -114.20878514 47.16848895 -110.1875 43.75 C-109.50300781 43.18410156 -108.81851563 42.61820313 -108.11328125 42.03515625 C-100.56517516 35.23467209 -97.03392756 26.10658933 -93.125 16.9375 C-87.33080813 3.704155 -77.66078861 -5.33692137 -64.4375 -11 C-42.20162715 -18.54590866 -18.06007822 -14.79578117 0 0 Z " fill="#E78091" transform="translate(386.1875,202.25)"/>
<path d="M0 0 C7.30806406 5.19946493 13.11006508 11.71302807 14.69140625 20.78125 C14.83449219 21.6990625 14.97757813 22.616875 15.125 23.5625 C17.08313076 34.92276656 22.48945941 41.09444395 31.25 48.25 C39.61292275 55.31497354 47.25258496 62.26033985 50 73.25 C50.90402659 84.09831904 50.08008888 92.90256955 43.375 101.80078125 C39.13745922 106.68485858 34.27393892 110.87569055 29.1953125 114.86328125 C22.31893297 120.33782375 20.42901304 126.29432415 18.375 134.6875 C15.83952547 144.87326446 10.90598652 152.21276302 2.25 158.25 C-6.55894158 162.95477562 -15.02056867 164.59424893 -24.99609375 162.859375 C-30.3355061 161.1276737 -34.57058042 157.61661744 -38.94140625 154.1875 C-44.64828954 150.25062363 -49.17099879 148.88294648 -56.08203125 148.87890625 C-57.4720076 148.86151849 -58.86198151 148.84393416 -60.25195312 148.82617188 C-62.40410052 148.81614596 -64.55608227 148.81249489 -66.70825195 148.81420898 C-76.54910611 148.79728673 -85.10684786 148.38433352 -93.3359375 142.35546875 C-102.38548849 132.65387587 -105.04359941 124.21919252 -104.68164062 111.01171875 C-104.60219678 108.83678062 -104.51104303 106.66223874 -104.40820312 104.48828125 C-104.231202 97.03608013 -105.41117827 92.33002208 -109.75 86.25 C-110.32105469 85.44046875 -110.89210938 84.6309375 -111.48046875 83.796875 C-112.20169922 82.90742188 -112.20169922 82.90742188 -112.9375 82 C-118.72266146 74.85631777 -118.61017982 67.0509977 -117.75 58.25 C-115.50194681 50.42886612 -110.02740729 43.41404624 -103.03076172 39.21923828 C-98.01384761 36.54429899 -93.01506688 35.14222509 -87.5 33.875 C-76.73183176 31.19628876 -65.9506229 28.11618451 -59.75 18.25 C-58.79506182 16.54158739 -57.8409372 14.83267545 -56.8996582 13.11669922 C-53.34889567 6.64800008 -50.02522592 1.38098849 -43.75 -2.75 C-43.14414062 -3.17925781 -42.53828125 -3.60851562 -41.9140625 -4.05078125 C-29.32032176 -11.29342662 -11.53878593 -7.06220009 0 0 Z " fill="#D85469" transform="translate(408.75,263.75)"/>
<path d="M0 0 C1.37901708 0.0017157 2.75803742 0.00164077 4.13705444 -0.00012207 C7.00998665 0.00152077 9.8821287 0.02002813 12.75488281 0.05175781 C16.41752879 0.09150825 20.07914722 0.09578791 23.74196815 0.08829498 C26.58351885 0.08521091 29.42484309 0.09739525 32.26633835 0.11442566 C34.26694199 0.12476456 36.26758866 0.12530166 38.26821899 0.12561035 C48.17653486 0.25395326 55.24871029 1.613367 62.6953125 8.48828125 C67.34461175 13.84292291 70.6225176 20.89484659 70.68457031 28.01416016 C70.69417786 28.90583893 70.7037854 29.7975177 70.71368408 30.71621704 C70.71793396 31.67869354 70.72218384 32.64117004 70.7265625 33.6328125 C70.73226257 34.62824066 70.73796265 35.62366882 70.74383545 36.64926147 C70.75328663 38.75916481 70.7598199 40.86908292 70.76367188 42.97900391 C70.77333724 46.18548922 70.80434314 49.39132247 70.8359375 52.59765625 C70.84247189 54.65103787 70.84772065 56.70442407 70.8515625 58.7578125 C70.8639093 59.70814362 70.8762561 60.65847473 70.88897705 61.63760376 C70.85812965 70.99730614 68.84445393 78.04105775 62.3359375 84.875 C53.44938372 93.30190444 42.9396655 94.06050762 31.2109375 94.0625 C29.96143311 94.07011353 28.71192871 94.07772705 27.42456055 94.08557129 C24.12726529 94.09906032 20.83038066 94.09700824 17.53308105 94.09118652 C15.52467919 94.09374842 13.51704409 94.11189989 11.50878906 94.13574219 C7.61747657 94.17873484 3.72746235 94.18762546 -0.1640625 94.1875 C-1.3497583 94.20389526 -2.5354541 94.22029053 -3.75708008 94.23718262 C-12.30483095 94.16667878 -19.13052338 92.53767614 -25.58618164 86.67932129 C-33.73966155 78.20166416 -35.61723131 68.64755954 -35.71484375 57.3046875 C-35.7229155 56.40561676 -35.73098724 55.50654602 -35.73930359 54.58023071 C-35.75310632 52.6789948 -35.76384544 50.77773451 -35.77172852 48.87646484 C-35.78322091 46.94865564 -35.80362906 45.02087757 -35.83325195 43.09326172 C-36.19895975 19.26709246 -36.19895975 19.26709246 -28.3515625 9.21875 C-20.03610661 0.86925696 -11.40271332 -0.14366012 0 0 Z " fill="#FAEEDB" transform="translate(348.4765625,570.40625)"/>
<path d="M0 0 C0.95496872 -0.00960754 1.90993744 -0.01921509 2.8938446 -0.02911377 C3.9250795 -0.03336365 4.95631439 -0.03761353 6.01879883 -0.04199219 C7.0831868 -0.04769226 8.14757477 -0.05339233 9.24421692 -0.05926514 C11.49955247 -0.06871693 13.75490184 -0.07524983 16.01025391 -0.07910156 C19.44499163 -0.08878029 22.87912412 -0.1197915 26.3137207 -0.15136719 C28.50707653 -0.15790013 30.70043664 -0.16314946 32.89379883 -0.16699219 C34.42546944 -0.18551239 34.42546944 -0.18551239 35.98808289 -0.20440674 C41.7472992 -0.1866016 47.36944087 -0.15475434 52.28833008 3.16113281 C57.06376207 8.2019358 58.02516375 13.31453024 57.88208008 20.04394531 C57.88212036 20.8618454 57.88216064 21.67974548 57.88220215 22.52243042 C57.87687636 24.23850254 57.85942063 25.95457649 57.83032227 27.67041016 C57.78832307 30.28656966 57.78927399 32.9001602 57.79614258 35.51660156 C57.78565269 37.19240057 57.77271567 38.86818642 57.75708008 40.54394531 C57.75677795 41.70665451 57.75677795 41.70665451 57.75646973 42.89285278 C57.65254265 47.69027145 56.89281085 50.98942997 54.28833008 55.16113281 C50.02733262 59.10255546 46.90494817 60.27663706 41.17773438 60.33813477 C40.13622726 60.35097 39.09472015 60.36380524 38.02165222 60.37702942 C36.8966481 60.38441635 35.77164398 60.39180328 34.61254883 60.39941406 C32.87567558 60.41152168 32.87567558 60.41152168 31.10371399 60.4238739 C28.65167741 60.43771136 26.1996216 60.44843502 23.74755859 60.45629883 C20.00101186 60.47351708 16.25534622 60.51740857 12.5090332 60.56152344 C10.12687823 60.57164995 7.74471576 60.58016618 5.36254883 60.58691406 C3.68415169 60.61317619 3.68415169 60.61317619 1.97184753 60.63996887 C-4.02527674 60.62327468 -8.17721549 60.53814407 -12.71166992 56.16113281 C-16.09365509 51.25682984 -16.16571252 46.78397683 -16.14526367 41.03613281 C-16.15050552 40.17101074 -16.15574738 39.30588867 -16.16114807 38.41455078 C-16.16754783 36.5924588 -16.16625787 34.77032538 -16.15771484 32.94824219 C-16.14919556 30.16949622 -16.17800836 27.39280154 -16.2097168 24.61425781 C-16.21132887 22.83821676 -16.21075117 21.06217209 -16.20776367 19.28613281 C-16.22461464 18.04839111 -16.22461464 18.04839111 -16.24180603 16.78564453 C-16.17756349 11.4371339 -15.22786223 8.4232833 -11.71166992 4.16113281 C-7.99951853 0.89893917 -4.87781869 0.03966443 0 0 Z " fill="#201F1C" transform="translate(345.711669921875,586.8388671875)"/>
<path d="M0 0 C8.98194903 6.69517276 14.84243484 13.8994836 17 25 C17.96518098 34.88658352 16.75153236 43.62789867 10.8125 51.75 C4.25834799 59.52448575 -3.87653407 65.13171684 -14.140625 66.3828125 C-24.50036565 66.75104973 -32.45486394 64.52364665 -40.375 57.75 C-47.95875775 50.39459629 -52.92785541 41.86151264 -53.4375 31.125 C-53.08193335 21.15367451 -48.34614595 11.16179609 -41.1875 4.25 C-29.37000939 -5.28023436 -13.53269688 -7.60833782 0 0 Z " fill="#211F1C" transform="translate(385,94)"/>
<path d="M0 0 C5.18570025 3.01713469 9.51359715 7.22829145 11.4375 13 C11.97135142 18.96476294 11.99020149 23.95745595 8.4375 29 C3.65296951 33.9144807 -0.4452151 36.69338181 -7.375 37.375 C-12.7346347 37.21319971 -17.13553376 35.18734172 -21.10546875 31.609375 C-24.53231203 27.79060536 -26.51802362 24.03551304 -26.59375 18.8671875 C-26.17532738 12.69545378 -24.58160969 7.65461581 -19.84765625 3.4921875 C-13.50442984 -1.20153183 -7.61178609 -2.13664171 0 0 Z " fill="#F5EBDB" transform="translate(374.5625,107)"/>
<path d="M0 0 C3.3803941 1.66610056 5.41018435 4.07681028 7.4375 7.25 C8.52882063 12.5853453 8.0588954 17.28385918 5.1875 21.9375 C1.65787654 25.26543069 -0.00767252 25.92124385 -4.9375 26.3125 C-8.71781322 26.20007433 -11.0259734 25.46419347 -14 23 C-17.37682284 19.15740849 -17.50599408 15.36047626 -17.359375 10.44140625 C-16.83198846 6.85861727 -15.3569924 4.69370559 -13 2 C-8.74696324 -0.83535784 -4.99241992 -0.76089759 0 0 Z " fill="#E37F8D" transform="translate(242,154)"/>
<path d="M0 0 C3.41416328 2.87100094 5.38961069 4.9099046 6.06640625 9.421875 C6.34909142 14.85672541 5.44546101 18.10378051 1.75 22.3125 C-2.44746186 24.85907728 -6.45945327 25.12614572 -11.25 24.3125 C-14.57630848 22.61066775 -16.67545014 20.21179543 -18.6875 17.0625 C-19.77882063 11.7271547 -19.3088954 7.02864082 -16.4375 2.375 C-11.4184518 -2.35724544 -6.32936772 -3.28640247 0 0 Z " fill="#E27F8D" transform="translate(465.25,180.6875)"/>
<path d="M0 0 C3.56593326 2.20025669 5.43946681 4.14787302 7 8 C7.34050529 12.88057582 6.66327491 16.18366164 3.5625 20 C-0.33334086 23.04065628 -2.82661131 23.39841438 -7.67578125 23.3515625 C-12.27011346 22.65662149 -14.61838034 19.74204218 -17.4375 16.1875 C-18.33906173 12.68142659 -17.94983473 9.43717173 -17 6 C-12.57934954 -1.01206625 -7.69292346 -1.9094935 0 0 Z " fill="#E2808E" transform="translate(351,484)"/>
<path d="M0 0 C3.70390021 2.02666238 5.65363011 3.48044516 8 7 C8.42740092 12.29977145 8.52351458 15.74748241 5 20 C2.09799637 22.33772514 0.27699106 22.96474659 -3.4375 23.4375 C-8.25299984 22.84612283 -11.36132406 21.08558757 -14.375 17.25 C-15.33387734 13.79804156 -15.5738278 10.51994371 -15 7 C-11.19643215 0.7512814 -7.18876326 -0.74366517 0 0 Z " fill="#E27F8D" transform="translate(199,374)"/>
<path d="M0 0 C4.04095372 2.09530934 6.34382125 3.76668329 8 8 C8.42249267 12.92027921 7.64573694 16.18868948 4.5625 20.0625 C1.03839668 22.50553781 -2.4552207 22.70245924 -6.65625 22.5 C-10.24585412 21.73421779 -11.86994058 19.88588695 -14 17 C-15.61429923 13.77140153 -15.59570657 10.49006347 -15 7 C-11.40336873 0.7327358 -7.02650481 -0.9534105 0 0 Z " fill="#E17F8D" transform="translate(208,241)"/>
<path d="M0 0 C3.16118708 1.63913404 5.26864575 3.00269875 7.375 5.875 C8.23855538 8.81108828 8.36658209 10.94514926 8 14 C5.96006092 17.6578218 4.49580738 19.66946174 1 22 C-2.73455906 22.67577735 -6.36218785 22.69852858 -9.88671875 21.1953125 C-12.297984 19.50217226 -13.77489612 17.65836833 -14.7265625 14.875 C-15.46151332 10.60940309 -15.24881347 8.48874074 -13.25 4.5625 C-9.2868199 0.04887822 -5.83319167 -0.90419984 0 0 Z " fill="#E27F8D" transform="translate(526,226)"/>
<path d="M0 0 C3.16118708 1.63913404 5.26864575 3.00269875 7.375 5.875 C8.23855538 8.81108828 8.36658209 10.94514926 8 14 C5.96006092 17.6578218 4.49580738 19.66946174 1 22 C-3.50282411 22.72517392 -6.99285654 22.60000036 -10.9375 20.25 C-13.78206465 17.14683856 -14.82909642 15.31026074 -15.375 11.125 C-14.89861498 7.15512486 -13.46959574 5.10463464 -11 2 C-7.29137017 -0.47241989 -4.30094385 -0.66668695 0 0 Z " fill="#E1808D" transform="translate(536,291)"/>
<path d="M0 0 C3.00115208 2.00076805 4.46981125 3.47217799 5.66015625 6.90234375 C6.4524123 10.90977486 6.17711491 12.65842125 4.25 16.375 C1.2306869 19.89753195 -0.20619378 20.92318004 -4.875 21.375 C-8.05440343 21.29317712 -9.03293521 20.97995248 -11.875 19.25 C-14.78565508 16.16812992 -15.79996385 14.31452329 -16.4375 10.125 C-15.82244681 5.7317629 -14.08098355 4.15434031 -11 1 C-7.51118574 -0.74440713 -3.80666824 -0.56541186 0 0 Z " fill="#E27F8D" transform="translate(516,412)"/>
<path d="M0 0 C3.14560303 1.48778522 4.46505014 2.84025654 6.0234375 5.95703125 C6.61694582 8.77619575 6.67124696 11.14417438 6.0234375 13.95703125 C3.48868535 17.5671328 1.81848326 18.72574521 -2.4140625 19.95703125 C-6.59466559 19.95703125 -8.56421391 19.36118594 -11.9765625 16.95703125 C-14.14847981 13.80424806 -14.94233633 11.77845932 -15.1015625 7.95703125 C-12.39631545 0.74303911 -7.43512564 -2.37264248 0 0 Z " fill="#C8485D" transform="translate(327.9765625,321.04296875)"/>
<path d="M0 0 C3.66836289 0.28218176 5.36413765 1.0054404 8.25 3.25 C10.57849047 6.46553446 10.79457007 9.36021377 10.25 13.25 C7.79367438 17.52876075 7.79367438 17.52876075 5.25 19.25 C2.07625544 20.05921878 -0.56878511 20.00359702 -3.75 19.25 C-6.80067422 17.25772296 -8.34426669 15.91317126 -9.22265625 12.3125 C-9.53171829 8.12827546 -9.06887176 6.63428135 -6.3125 3.3125 C-5.466875 2.631875 -4.62125 1.95125 -3.75 1.25 C-2.75 0.25 -2.75 0.25 0 0 Z " fill="#C3485D" transform="translate(322.75,240.75)"/>
<path d="M0 0 C4.29477197 2.46551724 4.29477197 2.46551724 6 5 C6.73810279 8.14252854 6.70582012 10.85321863 6 14 C4.12379387 16.50160818 2.76108697 17.61945652 0 19 C-3.3125 19.375 -3.3125 19.375 -7 19 C-9.875 16.5625 -9.875 16.5625 -12 14 C-12.33 13.67 -12.66 13.34 -13 13 C-13.41194057 10.04775928 -13.5560236 7.90042627 -11.953125 5.3046875 C-8.18529737 0.71680327 -5.93673319 -0.68500768 0 0 Z " fill="#C3485C" transform="translate(301,268)"/>
<path d="M0 0 C4.0318506 1.3439502 5.32041925 2.42675465 7.375 6.125 C8.0053761 9.9072566 7.67715998 11.58111204 5.8125 14.9375 C2.64850128 17.77698603 0.58342764 18.04984951 -3.625 18.125 C-7.02308026 17.02291992 -7.57231917 16.20402124 -9.625 13.125 C-10.02451993 10.02872055 -10.27450348 8.08512648 -9.625 5.125 C-6.50390461 1.39491039 -4.89475778 0.16878475 0 0 Z " fill="#1F1E1A" transform="translate(368.625,115.875)"/>
<path d="M0 0 C2.64 0 5.28 0 8 0 C8 0.66 8 1.32 8 2 C78.62 2 149.24 2 222 2 C222 2.33 222 2.66 222 3 C148.74 3 75.48 3 0 3 C0 2.01 0 1.02 0 0 Z " fill="#2B2825" transform="translate(186,38)"/>
<path d="M0 0 C1.33332095 2.6666419 0.67102033 4.16680303 0 7 C-0.66 7 -1.32 7 -2 7 C-1.83556396 7.9369873 -1.67112793 8.87397461 -1.50170898 9.83935547 C-0.80440353 14.74808461 -0.91337325 19.62264907 -0.97265625 24.5703125 C-0.98529497 26.62109211 -0.99765648 28.67187344 -1.00976562 30.72265625 C-1.03462845 33.93316098 -1.0626924 37.14357472 -1.09594727 40.35400391 C-1.12614808 43.46777933 -1.14391604 46.58143739 -1.16015625 49.6953125 C-1.17361588 50.65374054 -1.1870755 51.61216858 -1.20094299 52.59963989 C-1.25218531 59.03665693 -1.25218531 59.03665693 1 65 C1.66 65.66 2.32 66.32 3 67 C6 71.5 6 71.5 6 75 C-2.69225177 65.98903233 -5.13290342 56.95617127 -5.23828125 44.7109375 C-5.246353 43.81186676 -5.25442474 42.91279602 -5.26274109 41.98648071 C-5.27654382 40.0852448 -5.28728294 38.18398451 -5.29516602 36.28271484 C-5.30665841 34.35490564 -5.32706656 32.42712757 -5.35668945 30.49951172 C-5.67861499 9.52579295 -5.67861499 9.52579295 -1 1 C-0.67 0.67 -0.34 0.34 0 0 Z " fill="#ECE6DA" transform="translate(318,583)"/>
<path d="M0 0 C0.33 0.99 0.66 1.98 1 3 C-1.8248457 8.40405264 -6.09716487 12.41307733 -11 16 C-11.66 16 -12.32 16 -13 16 C-13 15.34 -13 14.68 -13 14 C-11.6078125 13.1028125 -11.6078125 13.1028125 -10.1875 12.1875 C-6.92496058 9.94850236 -5.83460204 8.40711807 -4 5 C-3.01904252 3.98131338 -2.02297922 2.97648017 -1 2 C-0.67 1.34 -0.34 0.68 0 0 Z " fill="#F6F3E9" transform="translate(416,644)"/>
<path d="M0 0 C0.33 0.66 0.66 1.32 1 2 C0.34 2 -0.32 2 -1 2 C-1.226875 2.556875 -1.45375 3.11375 -1.6875 3.6875 C-3.35896766 6.63246684 -5.55276352 8.68156544 -8 11 C-8.3125 8.8125 -8.3125 8.8125 -8 6 C-5.43879574 2.95424358 -3.79480342 1.26493447 0 0 Z " fill="#EAE3D7" transform="translate(599,665)"/>
<path d="M0 0 C1.32 0.33 2.64 0.66 4 1 C3.52309796 2.62566606 3.04340334 4.25051311 2.5625 5.875 C2.29566406 6.77992188 2.02882813 7.68484375 1.75390625 8.6171875 C1 11 1 11 0 13 C-0.66 13 -1.32 13 -2 13 C-1.814375 12.38125 -1.62875 11.7625 -1.4375 11.125 C-0.76313824 8.95839822 -0.76313824 8.95839822 -2 7 C-1.39239518 4.6505947 -0.72870472 2.31470912 0 0 Z " fill="#EDE5D6" transform="translate(401,131)"/>
<path d="M0 0 C1.80698965 3.6139793 2.27576965 4.73763047 2.25 8.5 C2.25515625 9.2528125 2.2603125 10.005625 2.265625 10.78125 C1.97250404 13.2296721 1.21816769 14.87304054 0 17 C-0.66 16.67 -1.32 16.34 -2 16 C-1.34 10.72 -0.68 5.44 0 0 Z " fill="#E7E2D6" transform="translate(618,613)"/>
<path d="M0 0 C1.60495567 0.11442461 3.20898119 0.24194694 4.8125 0.375 C5.70582031 0.44460937 6.59914063 0.51421875 7.51953125 0.5859375 C10 1 10 1 13 3 C8.38 3 3.76 3 -1 3 C-0.67 2.01 -0.34 1.02 0 0 Z " fill="#F2EADD" transform="translate(545,36)"/>
<path d="M0 0 C0 3 0 3 -1.125 4.6875 C-3.76459098 6.53521368 -5.85804073 6.20946395 -9 6 C-6.45543849 3.03134491 -3.51005335 1.6380249 0 0 Z " fill="#EDE9DD" transform="translate(577,682)"/>
<path d="M0 0 C0 4.10202215 -1.4911355 5.81306402 -4 9 C-6.75 10.375 -6.75 10.375 -9 11 C-7.59155282 7.78475695 -5.89655214 5.67816132 -3.375 3.25 C-2.74335938 2.63640625 -2.11171875 2.0228125 -1.4609375 1.390625 C-0.73777344 0.70226562 -0.73777344 0.70226562 0 0 Z " fill="#D5707E" transform="translate(248,267)"/>
<path d="M0 0 C-1.09601169 1.00893131 -2.20213918 2.00688225 -3.3125 3 C-4.23482422 3.8353125 -4.23482422 3.8353125 -5.17578125 4.6875 C-7 6 -7 6 -10 6 C-8.20404732 1.26521567 -5.07984355 -1.69328118 0 0 Z " fill="#181713" transform="translate(159,50)"/>
<path d="M0 0 C0.66 0 1.32 0 2 0 C2.66 1.65 3.32 3.3 4 5 C4.66 5 5.32 5 6 5 C6.66 6.65 7.32 8.3 8 10 C7.01 10 6.02 10 5 10 C3.39453125 8.03125 3.39453125 8.03125 1.8125 5.5 C1.28269531 4.6646875 0.75289062 3.829375 0.20703125 2.96875 C-0.19128906 2.3190625 -0.58960938 1.669375 -1 1 C-0.67 0.67 -0.34 0.34 0 0 Z " fill="#F0EBE0" transform="translate(597,64)"/>
<path d="M0 0 C0.66 0.33 1.32 0.66 2 1 C2 1.99 2 2.98 2 4 C-2.17737474 5.59138085 -5.53160785 6.21278058 -10 6 C-10 5.67 -10 5.34 -10 5 C-8.906875 4.731875 -7.81375 4.46375 -6.6875 4.1875 C-3.38307337 3.12336261 -2.05039578 2.65345336 0 0 Z " fill="#FBF7EA" transform="translate(375,129)"/>
<path d="M0 0 C0.66 0 1.32 0 2 0 C1.67 2.31 1.34 4.62 1 7 C-0.32 6.34 -1.64 5.68 -3 5 C-1.625 2.5 -1.625 2.5 0 0 Z " fill="#ECE6D9" transform="translate(149,87)"/>
<path d="M0 0 C3 1 3 1 4 3 C6.02463255 3.65213292 6.02463255 3.65213292 8 4 C7.67 4.99 7.34 5.98 7 7 C4.0625 5.75 4.0625 5.75 1 4 C0.125 1.8125 0.125 1.8125 0 0 Z " fill="#EAE3D8" transform="translate(324,655)"/>
<path d="M0 0 C1.32 1.32 2.64 2.64 4 4 C1.625 5.5625 1.625 5.5625 -1 7 C-1.66 6.67 -2.32 6.34 -3 6 C-2.01 4.02 -1.02 2.04 0 0 Z " fill="#E8E2D5" transform="translate(611,643)"/>
<path d="M0 0 C0.99 0 1.98 0 3 0 C1.95125002 2.62187494 1.35068687 3.79371361 -1.125 5.25 C-1.74375 5.4975 -2.3625 5.745 -3 6 C-2.42655063 3.13275314 -2.1385485 2.1385485 0 0 Z " fill="#292723" transform="translate(413,652)"/>
<path d="M0 0 C0.99 0.33 1.98 0.66 3 1 C2.01 1.495 2.01 1.495 1 2 C1 2.66 1 3.32 1 4 C-0.98 4.33 -2.96 4.66 -5 5 C-3.35 3.35 -1.7 1.7 0 0 Z " fill="#D87785" transform="translate(271,250)"/>
<path d="M0 0 C1.98 0.66 3.96 1.32 6 2 C6 2.99 6 3.98 6 5 C4.125 4.75 4.125 4.75 2 4 C0.75 1.9375 0.75 1.9375 0 0 Z " fill="#EAE4D9" transform="translate(399,572)"/>
</svg>
